<svg width="337" height="337" viewBox="0 0 337 337" fill="none" xmlns="http://www.w3.org/2000/svg">
<circle cx="168.5" cy="168.5" r="168.5" fill="#FDFDFF"/>
<path d="M123.597 43.9642C74.9538 59.0402 45.2226 104.483 57.7208 145.294C70.2498 186.207 120.187 207.319 169.041 192.357L181.549 188.527C201.665 182.367 222.23 191.061 227.389 207.907C232.549 224.756 220.378 243.473 200.262 249.633C194.505 251.396 191.035 256.734 192.511 261.555L200.531 287.743C202.008 292.566 207.872 295.043 213.628 293.28C262.483 278.319 292.037 232.864 279.507 191.949C266.978 151.037 217.038 129.924 168.184 144.885L155.676 148.715C135.556 154.876 114.997 146.18 109.839 129.336C104.68 112.49 116.844 93.7728 136.963 87.6114C142.72 85.8486 146.19 80.5102 144.714 75.6897L136.694 49.5013C135.215 44.6817 129.353 42.2013 123.597 43.9642Z" fill="#1E1E1E"/>
</svg>
