<svg width="224" height="89" viewBox="0 0 224 89" fill="none" xmlns="http://www.w3.org/2000/svg">
<path d="M176.175 24.7697C167.304 29.5105 163.852 40.609 168.561 49.5064C173.281 58.4257 184.378 61.8415 193.297 57.121L195.58 55.9125C199.253 53.9687 203.823 55.3754 205.767 59.0481C207.711 62.7213 206.304 67.2905 202.631 69.2342C201.58 69.7904 201.179 71.0936 201.735 72.1446L204.757 77.8539C205.313 78.9053 206.616 79.306 207.667 78.7498C216.586 74.0293 220.003 62.9326 215.282 54.0128C210.561 45.0935 199.464 41.6775 190.545 46.398L188.261 47.6065C184.588 49.5506 180.02 48.1433 178.076 44.4712C176.132 40.7985 177.538 36.2293 181.211 34.2853C182.262 33.7291 182.663 32.4259 182.107 31.375L179.085 25.6656C178.529 24.615 177.226 24.2135 176.175 24.7697Z" fill="#1E1E1E"/>
<path d="M26.0137 20.704V26.58H10.8817V35.888H22.4777V41.66H10.8817V57H3.60167V20.704H26.0137ZM38.4559 32.664C39.3919 31.1387 40.6052 29.9427 42.0959 29.076C43.6212 28.2093 45.3546 27.776 47.2959 27.776V35.42H45.3719C43.0839 35.42 41.3506 35.9573 40.1719 37.032C39.0279 38.1067 38.4559 39.9787 38.4559 42.648V57H31.1759V28.192H38.4559V32.664ZM50.3273 42.492C50.3273 39.58 50.8993 36.9973 52.0433 34.744C53.222 32.4907 54.7993 30.7573 56.7753 29.544C58.786 28.3307 61.022 27.724 63.4833 27.724C65.6327 27.724 67.5047 28.1573 69.0993 29.024C70.7287 29.8907 72.0287 30.9827 72.9993 32.3V28.192H80.3313V57H72.9993V52.788C72.0633 54.14 70.7633 55.2667 69.0993 56.168C67.47 57.0347 65.5807 57.468 63.4313 57.468C61.0047 57.468 58.786 56.844 56.7753 55.596C54.7993 54.348 53.222 52.5973 52.0433 50.344C50.8993 48.056 50.3273 45.4387 50.3273 42.492ZM72.9993 42.596C72.9993 40.828 72.6527 39.32 71.9593 38.072C71.266 36.7893 70.33 35.8187 69.1513 35.16C67.9727 34.4667 66.7073 34.12 65.3553 34.12C64.0033 34.12 62.7553 34.4493 61.6113 35.108C60.4673 35.7667 59.5313 36.7373 58.8033 38.02C58.11 39.268 57.7633 40.7587 57.7633 42.492C57.7633 44.2253 58.11 45.7507 58.8033 47.068C59.5313 48.3507 60.4673 49.3387 61.6113 50.032C62.79 50.7253 64.038 51.072 65.3553 51.072C66.7073 51.072 67.9727 50.7427 69.1513 50.084C70.33 49.3907 71.266 48.42 71.9593 47.172C72.6527 45.8893 72.9993 44.364 72.9993 42.596ZM103.406 27.776C106.838 27.776 109.611 28.868 111.726 31.052C113.84 33.2013 114.898 36.2173 114.898 40.1V57H107.618V41.088C107.618 38.8 107.046 37.0493 105.902 35.836C104.758 34.588 103.198 33.964 101.222 33.964C99.2109 33.964 97.6162 34.588 96.4375 35.836C95.2935 37.0493 94.7215 38.8 94.7215 41.088V57H87.4415V28.192H94.7215V31.78C95.6922 30.532 96.9228 29.5613 98.4135 28.868C99.9388 28.14 101.603 27.776 103.406 27.776ZM119.948 42.596C119.948 39.6147 120.555 37.0147 121.768 34.796C122.982 32.5427 124.663 30.8093 126.812 29.596C128.962 28.348 131.423 27.724 134.196 27.724C137.767 27.724 140.714 28.6253 143.036 30.428C145.394 32.196 146.971 34.692 147.768 37.916H139.916C139.5 36.668 138.79 35.6973 137.784 35.004C136.814 34.276 135.6 33.912 134.144 33.912C132.064 33.912 130.418 34.6747 129.204 36.2C127.991 37.6907 127.384 39.8227 127.384 42.596C127.384 45.3347 127.991 47.4667 129.204 48.992C130.418 50.4827 132.064 51.228 134.144 51.228C137.091 51.228 139.015 49.9107 139.916 47.276H147.768C146.971 50.396 145.394 52.8747 143.036 54.712C140.679 56.5493 137.732 57.468 134.196 57.468C131.423 57.468 128.962 56.8613 126.812 55.648C124.663 54.4 122.982 52.6667 121.768 50.448C120.555 48.1947 119.948 45.5773 119.948 42.596ZM156.794 24.76C155.511 24.76 154.436 24.3613 153.57 23.564C152.738 22.732 152.322 21.7093 152.322 20.496C152.322 19.2827 152.738 18.2773 153.57 17.48C154.436 16.648 155.511 16.232 156.794 16.232C158.076 16.232 159.134 16.648 159.966 17.48C160.832 18.2773 161.266 19.2827 161.266 20.496C161.266 21.7093 160.832 22.732 159.966 23.564C159.134 24.3613 158.076 24.76 156.794 24.76ZM160.382 28.192V57H153.102V28.192H160.382Z" fill="#1E1E1E"/>
</svg>
